<?xml version="1.0" encoding="utf-8"?>
<svg viewBox="-17 42 326 363" xmlns="http://www.w3.org/2000/svg">
  <defs>
    <pattern id="pattern-0" x="0" y="0" width="20" height="20" patternUnits="userSpaceOnUse" viewBox="0 0 100 100">
      <path d="M 0 0 L 50 0 L 50 100 L 0 100 Z" style="fill: black;"/>
    </pattern>
    <linearGradient id="gradient-5" gradientUnits="userSpaceOnUse" x1="125.375" y1="-0.078" x2="125.375" y2="437.641" spreadMethod="pad" gradientTransform="matrix(0.86627, 0, 0, 1.029527, 743.391408, -0.919567)">
      <stop offset="0" style="stop-color: rgba(255, 255, 255, 1)"/>
      <stop offset="1" style="stop-color: rgba(204, 204, 204, 1)"/>
    </linearGradient>
    <linearGradient id="gradient-15" gradientUnits="userSpaceOnUse" x1="140.913" y1="62.512" x2="140.913" y2="382.512" gradientTransform="matrix(1, 0, 0, 1, 656.086992, -1.511937)">
      <stop offset="0" style="stop-color: rgba(255, 35, 6, 1)"/>
      <stop offset="1" style="stop-color: rgba(159, 19, 0, 1)"/>
    </linearGradient>
  </defs>
  <g transform="matrix(1, 0, 0, 1, -649.687622, 1.03784)">
    <g transform="matrix(1, 0, 0, 1, 326.969879, -5.294523)"/>
    <path d="M 647 61 L 947 61 L 947 381 L 647 381 L 647 61 Z" style="stroke: rgb(0, 0, 0); fill: url(#gradient-15);"/>
    <path d="M 847.942 365.591 C 847.734 365.591 847.423 365.591 847.007 365.591 L 823.618 365.22 L 824.241 249.584 C 824.241 245.631 823.773 242.851 822.838 241.245 C 821.902 239.639 819.563 238.836 815.821 238.836 L 802.723 238.836 L 802.723 203.626 L 847.007 203.996 C 865.095 204.244 874.138 215.362 874.138 237.353 L 873.827 329.64 C 873.827 341.747 871.54 350.766 866.966 356.696 C 862.392 362.626 856.051 365.591 847.942 365.591 M 768.731 277.752 L 768.731 318.892 C 768.523 322.845 768.991 325.687 770.134 327.416 C 771.278 329.146 774.032 330.011 778.398 330.011 L 811.143 330.011 L 811.143 365.22 L 746.589 365.22 C 734.946 365.22 727.41 362.008 723.979 355.584 C 720.549 349.16 718.834 339.153 718.834 325.563 L 718.834 293.689 C 718.834 286.029 719.509 281.458 720.861 279.976 C 722.212 278.493 726.734 277.752 734.426 277.752 L 768.731 277.752 M 781.517 203.626 L 789.937 203.626 L 789.937 238.836 L 744.094 238.465 C 736.817 238.465 731.516 236.674 728.189 233.091 C 724.863 229.508 723.2 222.528 723.2 212.15 L 723.511 124.682 C 723.511 114.798 724.447 108.559 726.318 105.965 C 728.189 103.37 729.645 101.517 730.684 100.405 C 731.724 99.294 733.803 98.491 736.921 97.996 C 740.04 97.502 742.327 97.255 743.782 97.255 L 773.72 97.255 L 773.097 192.507 C 773.097 196.46 773.564 199.302 774.5 201.031 C 775.436 202.761 777.775 203.626 781.517 203.626 M 874.762 97.255 L 874.762 129.5 C 874.762 136.418 872.163 139.878 866.966 139.878 L 786.195 140.248 L 786.195 97.255 L 874.762 97.255 Z" style="fill: url(#gradient-5); stroke: rgb(0, 0, 0); text-transform: capitalize; white-space: pre;"/>
  </g>
</svg>